#N canvas 2318 217 469 408 10;
#N canvas 2856 88 834 637 notemaker 0;
#X obj 119 158 random 53;
#X obj 86 184 pow;
#X msg 86 159 1.5;
#X obj 76 122 t b b b;
#X obj 53 209 *;
#X msg 53 159 100;
#X obj 53 229 moses 200;
#X obj 104 249 / 2;
#X obj 53 285 *;
#X obj 131 188 r o1;
#X obj 131 208 t b f;
#X msg 131 228 2;
#X obj 54 461 line~;
#X obj 98 309 r glide;
#X obj 53 483 osc~;
#X obj 86 482 r master;
#X obj 53 512 *~;
#X obj 83 559 dac~;
#X obj 290 66 loadbang;
#X obj 290 88 metro 2000;
#X obj 53 534 spigot~;
#X obj 92 510 inlet;
#X obj 270 154 random 53;
#X obj 237 180 pow;
#X msg 237 155 1.5;
#X obj 227 118 t b b b;
#X obj 204 205 *;
#X msg 204 155 100;
#X obj 204 225 moses 200;
#X obj 255 245 / 2;
#X obj 204 281 *;
#X obj 282 204 t b f;
#X msg 282 224 2;
#X obj 415 152 random 53;
#X obj 382 178 pow;
#X msg 382 153 1.5;
#X obj 372 116 t b b b;
#X obj 349 203 *;
#X msg 349 153 100;
#X obj 349 223 moses 200;
#X obj 400 243 / 2;
#X obj 349 279 *;
#X obj 427 202 t b f;
#X msg 427 222 2;
#X obj 550 150 random 53;
#X obj 517 176 pow;
#X msg 517 151 1.5;
#X obj 507 114 t b b b;
#X obj 484 201 *;
#X msg 484 151 100;
#X obj 484 221 moses 200;
#X obj 535 241 / 2;
#X obj 484 277 *;
#X obj 562 200 t b f;
#X msg 562 220 2;
#X obj 282 184 r o2;
#X obj 427 182 r o3;
#X obj 562 180 r o4;
#X obj 347 42 r tempo;
#N canvas 2988 169 450 300 tempofix 0;
#X obj 182 37 inlet;
#X obj 182 60 t b f;
#X obj 181 107 /;
#X obj 181 134 outlet;
#X msg 148 84 240000;
#X obj 234 134 s glidefix;
#X connect 0 0 1 0;
#X connect 1 0 4 0;
#X connect 1 1 2 1;
#X connect 2 0 3 0;
#X connect 2 0 5 0;
#X connect 4 0 2 0;
#X restore 347 64 pd tempofix;
#X obj 227 39 r metro-io;
#X obj 562 240 pow 0;
#X obj 427 242 pow 0;
#X obj 282 244 pow 0;
#X obj 131 248 pow 0;
#X obj 82 284 r glidefix;
#X obj 82 383 * 0;
#X obj 82 362 f;
#X obj 98 331 t b f;
#X obj 55 422 pack f f;
#X obj 212 455 line~;
#X obj 256 303 r glide;
#X obj 211 477 osc~;
#X obj 244 476 r master;
#X obj 211 506 *~;
#X obj 241 553 dac~;
#X obj 211 528 spigot~;
#X obj 250 504 inlet;
#X obj 240 278 r glidefix;
#X obj 240 377 * 0;
#X obj 240 356 f;
#X obj 256 325 t b f;
#X obj 213 416 pack f f;
#X obj 359 453 line~;
#X obj 403 301 r glide;
#X obj 358 475 osc~;
#X obj 391 474 r master;
#X obj 358 504 *~;
#X obj 388 551 dac~;
#X obj 358 526 spigot~;
#X obj 397 502 inlet;
#X obj 387 276 r glidefix;
#X obj 387 375 * 0;
#X obj 387 354 f;
#X obj 403 323 t b f;
#X obj 360 414 pack f f;
#X obj 492 452 line~;
#X obj 536 300 r glide;
#X obj 491 474 osc~;
#X obj 524 473 r master;
#X obj 491 503 *~;
#X obj 521 550 dac~;
#X obj 491 525 spigot~;
#X obj 530 501 inlet;
#X obj 520 275 r glidefix;
#X obj 520 374 * 0;
#X obj 520 353 f;
#X obj 536 322 t b f;
#X obj 493 413 pack f f;
#X floatatom 366 90 5 0 0 0 - - -;
#X connect 0 0 1 1;
#X connect 1 0 4 1;
#X connect 2 0 1 0;
#X connect 3 0 5 0;
#X connect 3 1 2 0;
#X connect 3 2 0 0;
#X connect 4 0 6 0;
#X connect 5 0 4 0;
#X connect 6 0 8 0;
#X connect 6 1 7 0;
#X connect 7 0 6 0;
#X connect 8 0 69 0;
#X connect 9 0 10 0;
#X connect 10 0 11 0;
#X connect 10 1 64 1;
#X connect 11 0 64 0;
#X connect 12 0 14 0;
#X connect 13 0 68 0;
#X connect 14 0 16 0;
#X connect 15 0 16 1;
#X connect 16 0 20 0;
#X connect 18 0 19 0;
#X connect 19 0 3 0;
#X connect 19 0 25 0;
#X connect 19 0 36 0;
#X connect 19 0 47 0;
#X connect 20 1 17 1;
#X connect 20 1 17 0;
#X connect 21 0 20 1;
#X connect 22 0 23 1;
#X connect 23 0 26 1;
#X connect 24 0 23 0;
#X connect 25 0 27 0;
#X connect 25 1 24 0;
#X connect 25 2 22 0;
#X connect 26 0 28 0;
#X connect 27 0 26 0;
#X connect 28 0 30 0;
#X connect 28 1 29 0;
#X connect 29 0 28 0;
#X connect 30 0 82 0;
#X connect 31 0 32 0;
#X connect 31 1 63 1;
#X connect 32 0 63 0;
#X connect 33 0 34 1;
#X connect 34 0 37 1;
#X connect 35 0 34 0;
#X connect 36 0 38 0;
#X connect 36 1 35 0;
#X connect 36 2 33 0;
#X connect 37 0 39 0;
#X connect 38 0 37 0;
#X connect 39 0 41 0;
#X connect 39 1 40 0;
#X connect 40 0 39 0;
#X connect 41 0 95 0;
#X connect 42 0 43 0;
#X connect 42 1 62 1;
#X connect 43 0 62 0;
#X connect 44 0 45 1;
#X connect 45 0 48 1;
#X connect 46 0 45 0;
#X connect 47 0 49 0;
#X connect 47 1 46 0;
#X connect 47 2 44 0;
#X connect 48 0 50 0;
#X connect 49 0 48 0;
#X connect 50 0 52 0;
#X connect 50 1 51 0;
#X connect 51 0 50 0;
#X connect 52 0 108 0;
#X connect 53 0 54 0;
#X connect 53 1 61 1;
#X connect 54 0 61 0;
#X connect 55 0 31 0;
#X connect 56 0 42 0;
#X connect 57 0 53 0;
#X connect 58 0 59 0;
#X connect 59 0 19 1;
#X connect 59 0 109 0;
#X connect 60 0 19 0;
#X connect 61 0 52 1;
#X connect 62 0 41 1;
#X connect 63 0 30 1;
#X connect 64 0 8 1;
#X connect 65 0 67 0;
#X connect 66 0 69 1;
#X connect 67 0 66 0;
#X connect 68 0 67 0;
#X connect 68 1 66 1;
#X connect 69 0 12 0;
#X connect 70 0 72 0;
#X connect 71 0 81 0;
#X connect 72 0 74 0;
#X connect 73 0 74 1;
#X connect 74 0 76 0;
#X connect 76 1 75 1;
#X connect 76 1 75 0;
#X connect 77 0 76 1;
#X connect 78 0 80 0;
#X connect 79 0 82 1;
#X connect 80 0 79 0;
#X connect 81 0 80 0;
#X connect 81 1 79 1;
#X connect 82 0 70 0;
#X connect 83 0 85 0;
#X connect 84 0 94 0;
#X connect 85 0 87 0;
#X connect 86 0 87 1;
#X connect 87 0 89 0;
#X connect 89 1 88 1;
#X connect 89 1 88 0;
#X connect 90 0 89 1;
#X connect 91 0 93 0;
#X connect 92 0 95 1;
#X connect 93 0 92 0;
#X connect 94 0 93 0;
#X connect 94 1 92 1;
#X connect 95 0 83 0;
#X connect 96 0 98 0;
#X connect 97 0 107 0;
#X connect 98 0 100 0;
#X connect 99 0 100 1;
#X connect 100 0 102 0;
#X connect 102 1 101 1;
#X connect 102 1 101 0;
#X connect 103 0 102 1;
#X connect 104 0 106 0;
#X connect 105 0 108 1;
#X connect 106 0 105 0;
#X connect 107 0 106 0;
#X connect 107 1 105 1;
#X connect 108 0 96 0;
#X restore 16 180 pd notemaker;
#X obj 16 28 vradio 15 1 0 4 empty empty empty 0 -8 0 10 -262144 -1
-1 0;
#X obj 16 96 s o1;
#X obj 51 28 vradio 15 1 1 4 empty empty empty 0 -8 0 10 -262144 -1
-1 1;
#X obj 84 27 vradio 15 1 1 4 empty empty empty 0 -8 0 10 -262144 -1
-1 2;
#X obj 116 27 vradio 15 1 1 4 empty empty empty 0 -8 0 10 -262144 -1
-1 3;
#X obj 16 155 tgl 15 1 empty empty empty 17 7 0 10 -262144 -1 -1 1
1;
#X obj 85 155 tgl 15 1 empty empty empty 17 7 0 10 -262144 -1 -1 1
1;
#X obj 62 155 tgl 15 1 empty empty empty 17 7 0 10 -262144 -1 -1 1
1;
#X obj 39 155 tgl 15 1 empty empty empty 17 7 0 10 -262144 -1 -1 1
1;
#X obj 17 257 tgl 15 1 empty empty empty 17 7 0 10 -262144 -1 -1 1
1;
#X obj 17 280 s metro-io;
#X obj 241 82 s tempo;
#X floatatom 241 63 5 0 0 0 - - -;
#X floatatom 239 175 5 0 0 0 - - -;
#X obj 239 194 s glide;
#X floatatom 240 276 5 0 0 0 - - -;
#X obj 240 295 s master;
#X obj 51 96 s o2;
#X obj 84 95 s o3;
#X obj 116 95 s o4;
#X text 13 4 [Set the Octave for each voice];
#X text 12 131 [Turn each voice on/off];
#X text 13 233 [Turn metronome on/off];
#X obj 244 35 hsl 128 20 30 300 0 1 empty empty empty -2 -8 0 10 -262144
-1 -1 4238 1;
#X obj 242 149 hsl 128 20 0 1 0 1 empty empty empty -2 -8 0 10 -262144
-1 -1 0 1;
#X obj 243 250 hsl 128 20 0 1 0 1 empty empty empty -2 -8 0 10 -262144
-1 -1 0 1;
#X text 238 116 Glide time (0-100%);
#X text 238 229 Master level;
#X text 239 1 Tempo - hold shift for fine tuning (30-300bpm);
#X connect 1 0 2 0;
#X connect 3 0 18 0;
#X connect 4 0 19 0;
#X connect 5 0 20 0;
#X connect 6 0 0 0;
#X connect 7 0 0 3;
#X connect 8 0 0 2;
#X connect 9 0 0 1;
#X connect 10 0 11 0;
#X connect 13 0 12 0;
#X connect 14 0 15 0;
#X connect 16 0 17 0;
#X connect 24 0 13 0;
#X connect 25 0 14 0;
#X connect 26 0 16 0;
